<svg width="36" height="50" viewBox="0 0 36 50" fill="none" xmlns="http://www.w3.org/2000/svg">
<path d="M34.9652 10.7C35.4485 9.68784 34.7106 8.51782 33.5889 8.51782L25.4274 8.51782C25.071 8.51782 24.7258 8.64266 24.4518 8.87067L2.86106 26.8388C2.15695 27.4248 2.1246 28.4948 2.79201 29.1223L24.4355 49.4692C24.7183 49.7351 25.0919 49.8831 25.4801 49.8831H33.5889C34.7106 49.8831 35.4485 48.7131 34.9652 47.7009L26.4463 29.8575C26.2479 29.442 26.2479 28.959 26.4463 28.5434L34.9652 10.7Z" fill="#F2EEFF"/>
<path d="M33.5889 8.70846L25.4274 8.70846C25.1155 8.70846 24.8135 8.8177 24.5738 9.0172L2.983 26.9853C2.36691 27.4981 2.3386 28.4344 2.92259 28.9834L24.5661 49.3303C24.8136 49.5629 25.1404 49.6924 25.4801 49.6924H33.5889C34.5704 49.6924 35.216 48.6687 34.7932 47.783L26.2742 29.9397C26.051 29.4721 26.051 28.9288 26.2742 28.4612L34.7932 10.6179C35.216 9.73223 34.5704 8.70846 33.5889 8.70846Z" stroke="#6631FF" stroke-opacity="0.1" stroke-width="0.38128"/>
<path d="M1.21389 2.10007C0.791047 1.2144 1.43673 0.19064 2.41816 0.19064L10.5797 0.19064C10.8916 0.19064 11.1936 0.299877 11.4333 0.499379L33.0241 18.4675C33.6402 18.9802 33.6685 19.9165 33.0845 20.4655L11.441 40.8124C11.1935 41.0451 10.8666 41.1746 10.527 41.1746H2.41816C1.43673 41.1746 0.791047 40.1509 1.21389 39.2652L9.73285 21.4219C9.95607 20.9543 9.95606 20.4109 9.73285 19.9434L1.21389 2.10007Z" fill="#6631FF" stroke="white" stroke-width="0.38128"/>
</svg>
